<?xml version="1.0" encoding="UTF-8" standalone="no"?>

<svg
   version="1.1"
   id="svg2"
   width="329.25333"
   height="94.493332"
   viewBox="0 0 329.25333 94.493332"
   sodipodi:docname="logo_mfa_4c_rz.eps"
   xmlns:inkscape="http://www.inkscape.org/namespaces/inkscape"
   xmlns:sodipodi="http://sodipodi.sourceforge.net/DTD/sodipodi-0.dtd"
   xmlns="http://www.w3.org/2000/svg"
   xmlns:svg="http://www.w3.org/2000/svg">
  <defs
     id="defs6" />
  <sodipodi:namedview
     id="namedview4"
     pagecolor="#ffffff"
     bordercolor="#000000"
     borderopacity="0.25"
     inkscape:showpageshadow="2"
     inkscape:pageopacity="0.0"
     inkscape:pagecheckerboard="0"
     inkscape:deskcolor="#d1d1d1" />
  <g
     id="g8"
     inkscape:groupmode="layer"
     inkscape:label="ink_ext_XXXXXX"
     transform="matrix(1.3333333,0,0,-1.3333333,0,94.493333)">
    <g
       id="g10"
       transform="scale(0.1)">
      <path
         d="m 398.578,435.055 c -7.367,41.738 -10.937,107.386 -9,172.968 1.93,65.59 -0.637,66.879 -0.637,66.879 0,0 6.821,-2.941 7.059,-7.718 2.09,-40.098 0.965,-139.079 7.398,-176.375 6.43,-37.286 9.332,-50.614 8.043,-53.836 -1.289,-3.2 -10.937,-12.852 -12.863,-1.918"
         style="fill:#176fc1;fill-opacity:1;fill-rule:nonzero;stroke:none"
         id="path12" />
      <path
         d="m 727.766,502.73 c -25.68,-7.347 -66.782,-2.07 -93.68,27.833 -20.609,22.898 -23.231,87.687 -24.367,110.82 -3.055,61.828 -52.293,65.449 -94.656,67.168 -26.516,1.066 -89.676,-2.649 -101.176,-4 -24.824,-2.949 -41.543,-5.91 -42.574,-27 -0.391,-8.078 6.304,-11.809 6.304,-10.301 0,1.52 3.238,13.762 28.285,17.184 25.055,3.418 88.129,2.808 120.703,-0.77 34.762,-3.809 57.657,-12.973 65.098,-46.746 3.18,-14.438 7.723,-81.48 17.453,-108.379 13.5,-37.328 57.489,-55.726 94.539,-50.125 19.141,2.887 35.297,27.527 24.071,24.316"
         style="fill:#176fc1;fill-opacity:1;fill-rule:nonzero;stroke:none"
         id="path14" />
      <path
         d="m 743.805,509.801 c -8.301,-4.25 -21.871,-9.668 -19.938,-7.36 10.828,12.84 28.789,22.758 33.981,24.02 9.066,2.211 13.539,0 7.07,-4.309 -2.184,-1.461 -11.145,-7.23 -21.113,-12.351 m 312.435,35.668 c -14.77,-3.676 -72.17,-23.649 -155.705,-46.149 -61.062,-16.429 -74.082,2.571 -78.711,15.289 -12.707,34.903 -19.398,24.141 -25.789,19.75 l -15.89,-10.589 c -0.243,3.242 5.05,12.652 -13.18,12.71 -13.879,0.063 -39.547,-12.781 -55.281,-32.703 -8.559,-10.839 -11.508,-22.507 -7.5,-26.367 6.269,-6.058 5.91,-13.07 25.488,-2.527 23.773,12.769 65.183,48.597 67.031,48.371 3.942,-0.504 5.723,-10.793 13.281,-25.66 11.012,-21.672 37.684,-28.434 94.364,-21.926 33.918,3.902 151.722,41.516 158.762,45.035 4.58,2.281 23.65,32.406 -6.87,24.766"
         style="fill:#176fc1;fill-opacity:1;fill-rule:nonzero;stroke:none"
         id="path16" />
      <path
         d="m 950.359,545.527 c -2.855,1.977 -11.046,6.95 -16.238,-5.257 -5.383,-12.653 33.883,-36.793 63.313,-55.383 58.006,-36.641 73.266,-24.426 32.056,4.582 -40.513,28.5 -79.131,56.058 -79.131,56.058"
         style="fill:#176fc1;fill-opacity:1;fill-rule:nonzero;stroke:none"
         id="path18" />
      <path
         d="m 1281.95,668.504 c 20.07,8.609 122.84,9.172 176.6,1.234 53.78,-7.941 91.47,-17.175 60.51,-37.281 -12.21,-7.949 -3.66,-7.34 3.64,-4.801 10.47,3.649 23.59,11.25 29.98,19.469 14.65,18.938 -14.07,45.207 -111.22,49.5 -97.17,4.27 -171.38,-4.961 -172.95,-23.23 -1.22,-14.059 0.61,-10.391 13.44,-4.891"
         style="fill:#176fc1;fill-opacity:1;fill-rule:nonzero;stroke:none"
         id="path20" />
      <path
         d="m 1368.74,664.223 c -6.73,-31.774 -20.18,-170.493 -17.12,-201.66 3.06,-31.153 15.9,-32.321 20.18,-29.942 4.24,2.379 5.48,8.563 3.04,16.512 -3.27,10.648 -12.83,-7.949 -14.05,47.66 -1.23,55.609 12.22,162.547 12.22,162.547 l -4.27,4.883"
         style="fill:#176fc1;fill-opacity:1;fill-rule:nonzero;stroke:none"
         id="path22" />
      <path
         d="m 1330.22,581.117 c -1.78,6.129 -26.28,-11 -10.4,-22.609 15.92,-11.613 102.06,-11.004 115.52,-7.949 13.44,3.07 -6.1,3.679 -18.33,12.839 -4.81,3.618 -82.5,3.047 -86.79,17.719"
         style="fill:#176fc1;fill-opacity:1;fill-rule:nonzero;stroke:none"
         id="path24" />
      <path
         d="m 1473.85,464.398 c -13.72,-2.804 100.73,94.903 147.26,44.004 37.61,-41.16 50.08,-19.48 97.74,-2.91 26.33,9.16 37.78,14.891 37.78,14.891 0,0 25.18,-16.031 45.79,-30.918 10.03,-7.254 12.65,-26.004 -13.74,-19.465 -12.91,3.215 -37.66,24.391 -52.26,21.371 -44.28,-9.16 -111.33,-47.301 -124.06,-9.922 -19.45,57.25 -124.8,-14.226 -138.51,-17.051"
         style="fill:#176fc1;fill-opacity:1;fill-rule:nonzero;stroke:none"
         id="path26" />
      <path
         d="m 1964.04,511.605 c 44.08,-21.371 44.93,-36.902 22.2,-37.66 -12.14,-0.398 -26.57,4.297 -34.55,9.27 -13.96,8.672 -33.09,18.996 -53.41,14.262 -39.25,-9.161 -44.41,-29.762 -44.41,-29.762 -11.03,30.515 66.1,65.258 110.17,43.89"
         style="fill:#176fc1;fill-opacity:1;fill-rule:nonzero;stroke:none"
         id="path28" />
      <path
         d="m 2192.83,615.805 c -10.06,-2.508 -20.41,-42.051 -64.11,-81.688 -40.32,-36.59 -64.11,-34.742 -64.11,-34.742 -12.6,33.594 -41.22,5.73 -36.65,-15.641 0,0 5.04,-13.148 9.17,-13.73 32.05,6.113 109.34,48.031 142.47,114.293 0,0 -11.29,-17.598 -21.89,-44.457 -13.65,-34.637 0.55,-56.727 51.15,-61.82 106.1,-10.692 209.14,-16.793 222.11,-29.762 12.99,-12.988 44.55,5.742 37.4,34.34 -3.81,15.269 -48.85,8.398 -96.17,8.398 -49.09,0 -84.72,-1.527 -131.29,-0.769 -66.92,1.089 -94.13,13.621 -68.68,64.519 22.9,45.801 43.85,66.871 20.6,61.059"
         style="fill:#176fc1;fill-opacity:1;fill-rule:nonzero;stroke:none"
         id="path30" />
      <path
         d="m 1773.81,566.172 c 0,-6.32 -5.13,-11.449 -11.45,-11.449 -6.34,0 -11.46,5.129 -11.46,11.449 0,6.324 5.12,11.449 11.46,11.449 6.32,0 11.45,-5.125 11.45,-11.449"
         style="fill:#176fc1;fill-opacity:1;fill-rule:nonzero;stroke:none"
         id="path32" />
      <path
         d="m 98.3984,180.898 v 74.723 L 73.9102,207.008 H 56.9883 l -24.668,48.613 V 180.898 H 7.29297 v 128.2 H 31.9648 l 33.4844,-69.325 33.3125,69.325 H 123.43 v -128.2 H 98.3984"
         style="fill:#231f20;fill-opacity:1;fill-rule:nonzero;stroke:none"
         id="path34" />
      <path
         d="m 199.547,220.508 h -17.828 c -9.36,0 -13.864,-3.781 -13.864,-10.801 0,-6.484 4.504,-10.625 14.223,-10.625 5.766,0 9.902,0.723 13.863,4.504 2.704,2.344 3.606,5.941 3.606,11.883 z m 0.543,-39.61 V 189 c -6.305,-6.301 -12.246,-9 -23.051,-9 -10.625,0 -18.547,2.883 -23.949,8.281 -5.039,5.219 -7.738,12.782 -7.738,21.067 0,14.945 10.257,27.183 32.406,27.183 h 21.789 v 4.684 c 0,10.265 -5.043,14.765 -17.469,14.765 -8.461,0 -12.961,-2.335 -18.008,-8.097 l -14.757,14.578 c 9.179,10.082 18,13.324 33.667,13.324 26.469,0 39.973,-11.16 39.973,-33.129 V 180.898 H 200.09"
         style="fill:#231f20;fill-opacity:1;fill-rule:nonzero;stroke:none"
         id="path36" />
      <path
         d="m 299.441,180.898 -17.285,28.086 -17.101,-28.086 h -28.09 l 32.41,47.895 -31.148,45.914 h 28.086 l 15.843,-26.824 16.028,26.824 h 28.086 l -31.149,-45.914 32.414,-47.895 h -28.094"
         style="fill:#231f20;fill-opacity:1;fill-rule:nonzero;stroke:none"
         id="path38" />
      <path
         d="m 412.477,286.77 v -31.512 h 50.593 v -22.324 h -50.593 v -52.036 h -25.028 v 128.2 h 84.446 V 286.77 h -59.418"
         style="fill:#231f20;fill-opacity:1;fill-rule:nonzero;stroke:none"
         id="path40" />
      <path
         d="m 537.938,249.141 c -3.598,3.597 -6.661,5.582 -12.418,5.582 -7.204,0 -15.125,-5.407 -15.125,-17.285 v -56.54 h -23.407 v 93.809 h 22.867 v -9.004 c 4.5,5.399 13.504,10.082 23.586,10.082 9.18,0 15.664,-2.34 22.145,-8.82 l -17.648,-17.824"
         style="fill:#231f20;fill-opacity:1;fill-rule:nonzero;stroke:none"
         id="path42" />
      <path
         d="m 569.426,180.898 v 91.11 h 23.406 v -91.11 z m -0.363,109.832 v 19.083 h 23.945 V 290.73 h -23.945"
         style="fill:#231f20;fill-opacity:1;fill-rule:nonzero;stroke:none"
         id="path44" />
      <path
         d="m 650.254,179.82 c -14.766,0 -27.91,1.621 -39.977,13.5 l 15.309,15.309 c 7.559,-7.746 17.82,-8.824 25.023,-8.824 8.106,0 16.571,2.699 16.571,9.722 0,4.684 -2.344,7.922 -9.907,8.641 l -15.125,1.441 c -16.562,1.621 -27.007,9.004 -27.007,26.289 0,19.625 17.105,29.887 36.191,29.887 14.762,0 26.828,-2.699 35.832,-10.98 l -14.406,-14.586 c -5.399,4.859 -13.504,6.304 -21.785,6.304 -9.364,0 -13.328,-4.328 -13.328,-9.003 0,-4.684 2.703,-7.383 9.726,-8.106 l 14.762,-1.441 c 18.547,-1.797 27.91,-11.524 27.91,-27.543 0,-20.707 -17.645,-30.61 -39.789,-30.61"
         style="fill:#231f20;fill-opacity:1;fill-rule:nonzero;stroke:none"
         id="path46" />
      <path
         d="m 747.449,179.82 c -18.722,0 -41.953,10.082 -41.953,48.071 0,37.992 23.231,47.894 41.953,47.894 12.965,0 22.688,-3.961 30.969,-12.601 l -15.84,-15.844 c -4.863,5.219 -9.004,7.383 -15.129,7.383 -5.578,0 -9.898,-1.985 -13.324,-6.125 -3.598,-4.5 -5.219,-10.805 -5.219,-20.707 0,-9.903 1.621,-16.383 5.219,-20.883 3.426,-4.141 7.746,-6.125 13.324,-6.125 6.125,0 10.266,2.164 15.129,7.383 l 15.84,-15.664 c -8.281,-8.641 -18.004,-12.782 -30.969,-12.782"
         style="fill:#231f20;fill-opacity:1;fill-rule:nonzero;stroke:none"
         id="path48" />
      <path
         d="m 851.68,180.898 v 56.719 c 0,12.781 -8.102,17.106 -15.485,17.106 -7.382,0 -15.664,-4.325 -15.664,-17.106 v -56.719 h -23.406 v 128.2 h 23.406 v -43.035 c 5.946,6.48 13.864,9.722 22.867,9.722 9.36,0 16.922,-3.058 22.145,-8.281 7.562,-7.563 9.547,-16.387 9.547,-26.649 v -59.957 h -23.41"
         style="fill:#231f20;fill-opacity:1;fill-rule:nonzero;stroke:none"
         id="path50" />
      <path
         d="m 898.281,221.41 v 21.789 h 55.453 V 221.41 h -55.453"
         style="fill:#231f20;fill-opacity:1;fill-rule:nonzero;stroke:none"
         id="path52" />
      <path
         d="m 1022.68,271.285 -16.21,-46.633 h 31.87 z m 29.88,-90.387 -7.56,22.688 h -45.551 l -7.746,-22.688 h -26.105 l 46.632,128.2 h 19.63 l 46.81,-128.2 h -26.11"
         style="fill:#231f20;fill-opacity:1;fill-rule:nonzero;stroke:none"
         id="path54" />
      <path
         d="m 1144.17,249.141 c -3.6,3.597 -6.66,5.582 -12.42,5.582 -7.2,0 -15.12,-5.407 -15.12,-17.285 v -56.54 h -23.41 v 93.809 h 22.86 v -9.004 c 4.51,5.399 13.51,10.082 23.59,10.082 9.18,0 15.67,-2.34 22.15,-8.82 l -17.65,-17.824"
         style="fill:#231f20;fill-opacity:1;fill-rule:nonzero;stroke:none"
         id="path56" />
      <path
         d="m 1207.52,179.82 c -18.72,0 -41.95,10.082 -41.95,48.071 0,37.992 23.23,47.894 41.95,47.894 12.97,0 22.69,-3.961 30.98,-12.601 l -15.85,-15.844 c -4.86,5.219 -9,7.383 -15.13,7.383 -5.58,0 -9.9,-1.985 -13.32,-6.125 -3.6,-4.5 -5.22,-10.805 -5.22,-20.707 0,-9.903 1.62,-16.383 5.22,-20.883 3.42,-4.141 7.74,-6.125 13.32,-6.125 6.13,0 10.27,2.164 15.13,7.383 l 15.85,-15.664 c -8.29,-8.641 -18.01,-12.782 -30.98,-12.782"
         style="fill:#231f20;fill-opacity:1;fill-rule:nonzero;stroke:none"
         id="path58" />
      <path
         d="m 1311.75,180.898 v 56.719 c 0,12.781 -8.1,17.106 -15.48,17.106 -7.38,0 -15.66,-4.325 -15.66,-17.106 v -56.719 h -23.41 v 128.2 h 23.41 v -43.035 c 5.93,6.48 13.85,9.722 22.86,9.722 9.36,0 16.93,-3.058 22.15,-8.281 7.56,-7.563 9.54,-16.387 9.54,-26.649 v -59.957 h -23.41"
         style="fill:#231f20;fill-opacity:1;fill-rule:nonzero;stroke:none"
         id="path60" />
      <path
         d="m 1360.69,180.898 v 91.11 h 23.41 v -91.11 z m -0.36,109.832 v 19.083 h 23.95 V 290.73 h -23.95"
         style="fill:#231f20;fill-opacity:1;fill-rule:nonzero;stroke:none"
         id="path62" />
      <path
         d="m 1451.06,180.898 h -18.35 l -34.58,93.809 h 24.67 l 19.08,-57.98 18.91,57.98 h 24.67 l -34.4,-93.809"
         style="fill:#231f20;fill-opacity:1;fill-rule:nonzero;stroke:none"
         id="path64" />
      <path
         d="M 47.6953,34.9453 H 27.1484 c -11.0976,0 -16.6523,-4.3476 -16.6523,-13.0469 0,-8.5468 5.25,-12.60152 17.1016,-12.60152 6.1484,0 11.5468,0.60156 16.3476,4.94922 2.5469,2.3984 3.75,6.6055 3.75,12.75 z m 0,-34.046862 V 7.94922 C 41.8438,2.10156 36.2969,0 26.3984,0 16.1953,0 10.6484,1.79688 5.54688,6.74609 1.79688,10.3477 0,15.8984 0,21.7461 0,34.7969 9.14844,43.0469 25.6484,43.0469 h 22.0469 v 7.0508 c 0,10.6484 -5.25,16.1953 -18.8984,16.1953 -9.3008,0 -14.0977,-2.3985 -18.5977,-8.5508 l -7.35154,6.7539 c 6.44922,8.5508 13.94924,11.1016 26.09764,11.1016 19.9531,0 29.5508,-8.7032 29.5508,-24.6016 V 0.898438 H 47.6953"
         style="fill:#231f20;fill-opacity:1;fill-rule:nonzero;stroke:none"
         id="path66" />
      <path
         d="M 132.895,0.898438 V 46.3477 c 0,13.0468 -7.051,19.6484 -18.149,19.6484 -11.098,0 -18.3007,-6.75 -18.3007,-19.6484 V 0.898438 H 85.6484 V 74.6953 h 10.7969 v -8.0976 c 5.2537,6 12.4497,9 20.7027,9 7.95,0 14.399,-2.4063 18.899,-6.9024 5.246,-5.1015 7.648,-12 7.648,-20.5508 V 0.898438 h -10.8"
         style="fill:#231f20;fill-opacity:1;fill-rule:nonzero;stroke:none"
         id="path68" />
      <path
         d="m 234.441,65.9961 c -16.199,0 -18.597,-13.8008 -18.597,-28.1992 0,-14.3985 2.398,-28.19534 18.597,-28.19534 16.051,0 18.45,13.79684 18.45,28.19534 0,14.3984 -2.399,28.1992 -18.45,28.1992 z M 253.043,0.898438 V 9.74609 C 246.895,1.94922 240.445,0 232.039,0 c -7.644,0 -14.094,2.55078 -17.996,6.44922 -7.348,7.49998 -9,19.49608 -9,31.34768 0,11.8515 1.652,24 9,31.3476 3.902,3.9024 10.352,6.4532 17.996,6.4532 8.254,0 14.703,-1.8047 20.852,-9.4493 v 41.5466 h 10.8 V 0.898438 h -10.648"
         style="fill:#231f20;fill-opacity:1;fill-rule:nonzero;stroke:none"
         id="path70" />
      <path
         d="m 334.941,55.3477 c -3.148,6.7461 -9.296,11.0976 -17.25,11.0976 -7.949,0 -14.097,-4.3515 -17.246,-11.0976 -1.8,-3.9024 -1.953,-6.3008 -2.254,-12.3008 h 39.153 c -0.453,6 -0.602,8.3984 -2.403,12.3008 z m -36.75,-20.4024 c 0,-16.1953 7.5,-25.49608 21.75,-25.49608 8.551,0 13.5,2.54688 19.352,8.39848 l 7.348,-6.4532 C 339.141,3.89453 332.09,0 319.645,0 c -19.649,0 -32.25,11.6992 -32.25,37.7969 0,24 11.55,37.8008 30.296,37.8008 19.2,0 30.301,-13.6485 30.301,-35.8516 v -4.8008 h -49.801"
         style="fill:#231f20;fill-opacity:1;fill-rule:nonzero;stroke:none"
         id="path72" />
      <path
         d="m 412.938,60.5977 c -4.047,4.0468 -7.043,5.3984 -12.747,5.3984 -10.796,0 -17.703,-8.5508 -17.703,-19.8008 V 0.898438 H 371.695 V 74.6953 h 10.793 v -9.0039 c 4.055,6.1563 12.157,9.9063 20.703,9.9063 7.047,0 12.45,-1.6524 17.7,-6.9024 l -7.953,-8.0976"
         style="fill:#231f20;fill-opacity:1;fill-rule:nonzero;stroke:none"
         id="path74" />
      <path
         d="M 475.941,0.898438 V 107.695 h 66.301 V 97.4961 H 487.344 V 59.8438 h 46.797 V 49.6484 H 487.344 V 11.0977 h 54.898 V 0.898438 h -66.301"
         style="fill:#231f20;fill-opacity:1;fill-rule:nonzero;stroke:none"
         id="path76" />
      <path
         d="M 598.188,97.4961 V 0.898438 H 586.793 V 97.4961 h -30.898 v 10.1989 h 73.191 V 97.4961 h -30.898"
         style="fill:#231f20;fill-opacity:1;fill-rule:nonzero;stroke:none"
         id="path78" />
      <path
         d="M 712.035,0.898438 V 49.6484 H 661.34 V 0.898438 H 649.938 V 107.695 H 661.34 V 59.8438 h 50.695 v 47.8512 h 11.399 V 0.898438 h -11.399"
         style="fill:#231f20;fill-opacity:1;fill-rule:nonzero;stroke:none"
         id="path80" />
      <path
         d="m 751.039,36.3008 v 10.0469 h 41.102 V 36.3008 h -41.102"
         style="fill:#231f20;fill-opacity:1;fill-rule:nonzero;stroke:none"
         id="path82" />
      <path
         d="M 860.234,50.2422 H 831.137 V 11.0977 h 29.097 c 13.2,0 21.45,7.6523 21.45,19.6484 0,12.0039 -8.25,19.4961 -21.45,19.4961 z m -1.203,47.2539 H 831.137 V 60.4453 h 27.894 c 11.852,0 21.004,5.8477 21.004,18.5977 0,12.7539 -9.152,18.4531 -21.004,18.4531 z M 861.285,0.898438 H 819.734 V 107.695 h 40.204 c 18.597,0 31.5,-10.6481 31.5,-28.4997 0,-11.25 -6.754,-20.0976 -15.754,-23.3984 10.199,-3.75 17.402,-12.5977 17.402,-25.3477 0,-19.3515 -12.898,-29.550762 -31.801,-29.550762"
         style="fill:#231f20;fill-opacity:1;fill-rule:nonzero;stroke:none"
         id="path84" />
      <path
         d="M 918.887,0.898438 V 74.6953 h 10.797 V 0.898438 Z M 918.285,95.6914 v 12.1526 h 12.149 V 95.6914 h -12.149"
         style="fill:#231f20;fill-opacity:1;fill-rule:nonzero;stroke:none"
         id="path86" />
      <path
         d="m 986.836,65.9961 c -16.199,0 -18.606,-13.8008 -18.606,-28.1992 0,-14.3985 2.407,-28.19534 18.606,-28.19534 16.044,0 18.444,13.79684 18.444,28.19534 0,14.3984 -2.4,28.1992 -18.444,28.1992 z M 1007.08,6.44922 C 1003.18,2.55078 996.734,0 989.082,0 980.836,0 974.387,1.94922 968.23,9.74609 V 0.898438 H 957.438 V 107.695 H 968.23 V 66.1484 c 6.157,7.6446 12.754,9.4493 20.852,9.4493 7.652,0 14.098,-2.5508 17.998,-6.4532 7.35,-7.3476 9,-19.4961 9,-31.3476 0,-11.8516 -1.65,-23.8477 -9,-31.34768"
         style="fill:#231f20;fill-opacity:1;fill-rule:nonzero;stroke:none"
         id="path88" />
      <path
         d="m 1058.54,0.898438 c -12.91,0 -18.75,8.398442 -18.75,19.648462 v 87.1481 h 10.8 V 20.9961 c 0,-7.1953 2.4,-10.7969 9.89,-10.7969 h 5.85 V 0.898438 h -7.79"
         style="fill:#231f20;fill-opacity:1;fill-rule:nonzero;stroke:none"
         id="path90" />
      <path
         d="M 1085.09,0.898438 V 74.6953 h 10.79 V 0.898438 Z m -0.6,94.792962 v 12.1526 h 12.15 V 95.6914 h -12.15"
         style="fill:#231f20;fill-opacity:1;fill-rule:nonzero;stroke:none"
         id="path92" />
      <path
         d="m 1163.38,60.5977 c -3.59,3.5976 -8.24,5.3984 -13.5,5.3984 -5.25,0 -9.74,-1.8008 -13.35,-5.3984 -5.39,-5.4024 -5.99,-14.4024 -5.99,-22.8008 0,-8.25 0.45,-17.25 5.99,-22.7969 3.61,-3.6055 8.1,-5.39844 13.35,-5.39844 5.26,0 9.91,1.79294 13.5,5.39844 5.4,5.5469 5.85,14.5469 5.85,22.7969 0,8.3984 -0.45,17.3984 -5.85,22.8008 z m 7.66,-52.19926 C 1165.93,3.14844 1158.89,0 1149.88,0 c -9,0 -16.04,3.14844 -21.14,8.39844 -7.5,7.65236 -9,17.99606 -9,29.39846 0,11.3984 1.5,21.8984 9,29.3984 5.1,5.25 12.14,8.4024 21.14,8.4024 9.01,0 16.05,-3.1524 21.16,-8.4024 7.5,-7.5 8.99,-18 8.99,-29.3984 0,-11.4024 -1.49,-21.7461 -8.99,-29.39846"
         style="fill:#231f20;fill-opacity:1;fill-rule:nonzero;stroke:none"
         id="path94" />
      <path
         d="m 1224.74,0.898438 c -12.6,0 -18.91,8.847652 -18.91,19.800762 v 45.7461 h -9.29 v 8.25 h 9.29 v 22.6485 h 10.81 V 74.6953 h 15.75 v -8.25 h -15.75 V 20.9961 c 0,-6.75 3.15,-10.7969 10.04,-10.7969 h 5.71 V 0.898438 h -7.65"
         style="fill:#231f20;fill-opacity:1;fill-rule:nonzero;stroke:none"
         id="path96" />
      <path
         d="M 1301.98,0.898438 V 46.4922 c 0,13.0547 -6.75,19.5039 -18,19.5039 -11.25,0 -18.45,-6.4492 -18.45,-19.5039 V 0.898438 h -10.79 V 107.695 h 10.79 V 66.5977 c 5.4,6 12.3,9 20.7,9 16.81,0 26.55,-10.6524 26.55,-27.3008 V 0.898438 h -10.8"
         style="fill:#231f20;fill-opacity:1;fill-rule:nonzero;stroke:none"
         id="path98" />
      <path
         d="m 1383.44,55.3477 c -3.16,6.7461 -9.31,11.0976 -17.26,11.0976 -7.95,0 -14.1,-4.3515 -17.24,-11.0976 -1.8,-3.9024 -1.96,-6.3008 -2.25,-12.3008 h 39.14 c -0.45,6 -0.6,8.3984 -2.39,12.3008 z m -36.75,-20.4024 c 0,-16.1953 7.49,-25.49608 21.75,-25.49608 8.54,0 13.49,2.54688 19.34,8.39848 l 7.36,-6.4532 C 1387.64,3.89453 1380.59,0 1368.13,0 c -19.64,0 -32.24,11.6992 -32.24,37.7969 0,24 11.54,37.8008 30.29,37.8008 19.2,0 30.3,-13.6485 30.3,-35.8516 v -4.8008 h -49.79"
         style="fill:#231f20;fill-opacity:1;fill-rule:nonzero;stroke:none"
         id="path100" />
      <path
         d="m 1468.78,0.898438 -23.4,37.796862 -14.4,-16.5 V 0.898438 h -10.8 V 107.695 h 10.8 V 36.3008 l 33.3,38.3945 h 13.49 l -25.05,-28.2031 29.41,-45.593762 h -13.35"
         style="fill:#231f20;fill-opacity:1;fill-rule:nonzero;stroke:none"
         id="path102" />
    </g>
  </g>
</svg>
