<?xml version="1.0" encoding="UTF-8" standalone="no"?>
<!-- Created with Inkscape (http://www.inkscape.org/) -->

<svg
   version="1.1"
   id="svg2"
   width="574.49335"
   height="151.18668"
   viewBox="0 0 574.49335 151.18668"
   sodipodi:docname="Fremdmedienlogo_DE_horizontal_pos_eps.eps"
   xmlns:inkscape="http://www.inkscape.org/namespaces/inkscape"
   xmlns:sodipodi="http://sodipodi.sourceforge.net/DTD/sodipodi-0.dtd"
   xmlns="http://www.w3.org/2000/svg"
   xmlns:svg="http://www.w3.org/2000/svg">
  <defs
     id="defs6" />
  <sodipodi:namedview
     id="namedview4"
     pagecolor="#ffffff"
     bordercolor="#000000"
     borderopacity="0.25"
     inkscape:showpageshadow="2"
     inkscape:pageopacity="0.0"
     inkscape:pagecheckerboard="0"
     inkscape:deskcolor="#d1d1d1" />
  <g
     id="g8"
     inkscape:groupmode="layer"
     inkscape:label="ink_ext_XXXXXX"
     transform="matrix(1.3333333,0,0,-1.3333333,0,151.18667)">
    <g
       id="g10"
       transform="scale(0.1)">
      <path
         d="M 4308.66,0 H -0.00390625 V 1133.86 H 4308.66 V 0"
         style="fill:#ffffff;fill-opacity:1;fill-rule:nonzero;stroke:none"
         id="path12" />
      <path
         d="m 2643.46,573.074 c 0,1.317 0.88,2.196 2.2,2.196 h 89.99 c 1.32,0 2.2,-0.879 2.2,-2.196 v -13.863 c 0,-1.316 -0.88,-2.203 -2.2,-2.203 h -71.29 c -0.88,0 -1.32,-0.438 -1.32,-1.317 v -44.007 c 0,-0.879 0.44,-1.321 1.32,-1.321 h 60.51 c 1.31,0 2.19,-0.879 2.19,-2.203 v -13.855 c 0,-1.325 -0.88,-2.203 -2.19,-2.203 h -60.51 c -0.88,0 -1.32,-0.442 -1.32,-1.325 v -45.543 c 0,-0.882 0.44,-1.32 1.32,-1.32 h 71.29 c 1.32,0 2.2,-0.879 2.2,-2.199 v -13.86 c 0,-1.324 -0.88,-2.203 -2.2,-2.203 h -89.99 c -1.32,0 -2.2,0.879 -2.2,2.203 v 145.219"
         style="fill:#231f20;fill-opacity:1;fill-rule:nonzero;stroke:none"
         id="path14" />
      <path
         d="m 2804.85,425.652 c -1.32,0 -2.2,0.879 -2.2,2.203 v 127.836 c 0,0.879 -0.44,1.317 -1.32,1.317 h -40.93 c -1.32,0 -2.19,0.887 -2.19,2.203 v 13.863 c 0,1.317 0.87,2.196 2.19,2.196 h 104.08 c 1.31,0 2.2,-0.879 2.2,-2.196 v -13.863 c 0,-1.316 -0.89,-2.203 -2.2,-2.203 h -40.93 c -0.88,0 -1.32,-0.438 -1.32,-1.317 V 427.855 c 0,-1.324 -0.88,-2.203 -2.2,-2.203 h -15.18"
         style="fill:#231f20;fill-opacity:1;fill-rule:nonzero;stroke:none"
         id="path16" />
      <path
         d="m 2890.71,573.074 c 0,1.317 0.87,2.196 2.19,2.196 h 15.19 c 1.32,0 2.2,-0.879 2.2,-2.196 v -61.39 c 0,-0.879 0.44,-1.321 1.31,-1.321 h 64.92 c 0.88,0 1.31,0.442 1.31,1.321 v 61.39 c 0,1.317 0.88,2.196 2.2,2.196 h 15.19 c 1.32,0 2.19,-0.879 2.19,-2.196 V 427.855 c 0,-1.324 -0.87,-2.203 -2.19,-2.203 h -15.19 c -1.32,0 -2.2,0.879 -2.2,2.203 v 62.922 c 0,0.883 -0.43,1.325 -1.31,1.325 h -64.92 c -0.87,0 -1.31,-0.442 -1.31,-1.325 v -62.922 c 0,-1.324 -0.88,-2.203 -2.2,-2.203 h -15.19 c -1.32,0 -2.19,0.879 -2.19,2.203 v 145.219"
         style="fill:#231f20;fill-opacity:1;fill-rule:nonzero;stroke:none"
         id="path18" />
      <path
         d="m 3026.96,477.801 v 12.758 c 0,1.324 0.87,2.203 2.19,2.203 h 58.54 c 1.32,0 2.2,-0.879 2.2,-2.203 v -12.758 c 0,-1.324 -0.88,-2.203 -2.2,-2.203 h -58.54 c -1.32,0 -2.19,0.879 -2.19,2.203"
         style="fill:#231f20;fill-opacity:1;fill-rule:nonzero;stroke:none"
         id="path20" />
      <path
         d="m 3140.14,443.473 h 34.99 c 17.82,0 27.5,9.683 27.5,24.644 0,14.742 -9.68,24.645 -27.5,24.645 h -34.99 c -0.88,0 -1.32,-0.442 -1.32,-1.321 v -46.648 c 0,-0.879 0.44,-1.32 1.32,-1.32 z m 33.89,67.109 c 16.5,0 26.18,9.465 26.18,23.324 0,14.305 -9.68,23.543 -26.18,23.543 h -33.89 c -0.88,0 -1.32,-0.441 -1.32,-1.32 v -44.227 c 0,-0.879 0.44,-1.32 1.32,-1.32 z m -54.79,62.492 c 0,1.317 0.88,2.196 2.2,2.196 h 53.03 c 30.14,0 45.1,-15.399 45.1,-39.383 0,-17.383 -8.36,-27.946 -20.02,-32.567 v -0.437 c 10.12,-2.86 22.66,-14.524 22.66,-34.547 0,-27.941 -17.6,-42.684 -48.85,-42.684 h -51.92 c -1.32,0 -2.2,0.879 -2.2,2.203 v 145.219"
         style="fill:#231f20;fill-opacity:1;fill-rule:nonzero;stroke:none"
         id="path22" />
      <path
         d="m 3251.72,425.652 c -1.32,0 -2.2,0.879 -2.2,2.203 v 100.989 c 0,1.324 0.88,2.203 2.2,2.203 h 14.08 c 1.32,0 2.2,-0.879 2.2,-2.203 V 427.855 c 0,-1.324 -0.88,-2.203 -2.2,-2.203 z m -0.44,129.161 c -1.32,0 -2.21,0.878 -2.21,2.195 v 16.066 c 0,1.317 0.89,2.196 2.21,2.196 h 14.96 c 1.32,0 2.2,-0.879 2.2,-2.196 v -16.066 c 0,-1.317 -0.88,-2.195 -2.2,-2.195 h -14.96"
         style="fill:#231f20;fill-opacity:1;fill-rule:nonzero;stroke:none"
         id="path24" />
      <path
         d="m 3367.61,456.457 c 1.76,5.496 2.42,12.32 2.42,22.004 0,9.461 -0.66,16.281 -2.42,22 -3.52,10.344 -11.45,15.844 -23.11,15.844 -11.66,0 -19.79,-5.282 -23.32,-15.844 -1.75,-5.277 -2.42,-11.441 -2.42,-22 0,-10.563 0.67,-16.945 2.42,-22.004 3.53,-10.562 11.66,-16.062 23.32,-16.062 11.66,0 19.59,5.718 23.11,16.062 z m -65.13,-30.805 c -1.32,0 -2.19,0.879 -2.19,2.203 v 145.219 c 0,1.317 0.87,2.196 2.19,2.196 h 14.08 c 1.32,0 2.2,-0.879 2.2,-2.196 v -54.133 h 0.23 c 5.06,8.368 14.08,14.528 29.92,14.528 18.26,0 31.02,-8.582 36.31,-25.309 2.86,-8.359 3.74,-16.719 3.74,-29.699 0,-13.203 -0.88,-21.563 -3.74,-29.93 -5.29,-16.718 -18.05,-25.301 -36.31,-25.301 -15.84,0 -24.86,6.379 -29.92,14.747 h -0.23 v -10.122 c 0,-1.324 -0.88,-2.203 -2.2,-2.203 h -14.08"
         style="fill:#231f20;fill-opacity:1;fill-rule:nonzero;stroke:none"
         id="path26" />
      <path
         d="m 3442.16,424.555 c -18.49,0 -25.74,8.797 -25.74,27.722 v 120.797 c 0,1.317 0.88,2.196 2.2,2.196 h 14.08 c 1.32,0 2.2,-0.879 2.2,-2.196 V 453.375 c 0,-8.805 3.3,-11.66 10.56,-11.66 h 4.18 c 1.32,0 2.2,-0.883 2.2,-2.199 V 426.75 c 0,-1.316 -0.88,-2.195 -2.2,-2.195 h -7.48"
         style="fill:#231f20;fill-opacity:1;fill-rule:nonzero;stroke:none"
         id="path28" />
      <path
         d="m 3477.66,425.652 c -1.32,0 -2.2,0.879 -2.2,2.203 v 100.989 c 0,1.324 0.88,2.203 2.2,2.203 h 14.08 c 1.32,0 2.2,-0.879 2.2,-2.203 V 427.855 c 0,-1.324 -0.88,-2.203 -2.2,-2.203 z m -0.44,129.161 c -1.32,0 -2.21,0.878 -2.21,2.195 v 16.066 c 0,1.317 0.89,2.196 2.21,2.196 h 14.96 c 1.32,0 2.2,-0.879 2.2,-2.196 v -16.066 c 0,-1.317 -0.88,-2.195 -2.2,-2.195 h -14.96"
         style="fill:#231f20;fill-opacity:1;fill-rule:nonzero;stroke:none"
         id="path30" />
      <path
         d="m 3589.93,456.898 c 1.77,5.715 2.43,11.438 2.43,21.563 0,10.121 -0.66,15.617 -2.43,21.34 -3.51,10.562 -12.1,16.504 -23.76,16.504 -11.66,0 -20.24,-5.942 -23.76,-16.504 -1.76,-5.723 -2.42,-11.219 -2.42,-21.34 0,-10.125 0.66,-15.848 2.42,-21.563 3.52,-10.562 12.1,-16.503 23.76,-16.503 11.66,0 20.25,5.941 23.76,16.503 z m -65.34,-5.285 c -2.42,7.262 -3.52,14.528 -3.52,26.848 0,12.098 1.1,19.359 3.52,26.625 5.72,18.043 21.13,28.383 41.58,28.383 20.46,0 35.87,-10.34 41.59,-28.383 2.42,-7.266 3.52,-14.527 3.52,-26.625 0,-12.32 -1.1,-19.586 -3.52,-26.848 -5.72,-17.82 -21.13,-28.383 -41.59,-28.383 -20.45,0 -35.86,10.563 -41.58,28.383"
         style="fill:#231f20;fill-opacity:1;fill-rule:nonzero;stroke:none"
         id="path32" />
      <path
         d="m 3669.1,424.555 c -20.45,0 -28.37,9.238 -28.37,29.922 v 60.285 c 0,0.886 -0.44,1.324 -1.32,1.324 h -8.81 c -1.32,0 -2.2,0.879 -2.2,2.195 v 10.563 c 0,1.324 0.88,2.203 2.2,2.203 h 8.81 c 0.88,0 1.32,0.441 1.32,1.316 v 29.707 c 0,1.321 0.87,2.2 2.19,2.2 H 3657 c 1.32,0 2.21,-0.879 2.21,-2.2 v -29.707 c 0,-0.875 0.44,-1.316 1.32,-1.316 h 16.72 c 1.32,0 2.2,-0.879 2.2,-2.203 v -10.563 c 0,-1.316 -0.88,-2.195 -2.2,-2.195 h -16.72 c -0.88,0 -1.32,-0.438 -1.32,-1.324 v -59.629 c 0,-10.563 3.96,-13.418 13.42,-13.418 h 4.62 c 1.32,0 2.2,-0.883 2.2,-2.199 V 426.75 c 0,-1.316 -0.88,-2.195 -2.2,-2.195 h -8.15"
         style="fill:#231f20;fill-opacity:1;fill-rule:nonzero;stroke:none"
         id="path34" />
      <path
         d="m 3772.8,425.652 c -1.32,0 -2.21,0.879 -2.21,2.203 v 61.606 c 0,16.941 -7.7,26.844 -23.54,26.844 -14.3,0 -24.21,-10.121 -24.21,-25.746 v -62.704 c 0,-1.324 -0.87,-2.203 -2.19,-2.203 h -14.09 c -1.31,0 -2.19,0.879 -2.19,2.203 v 145.219 c 0,1.317 0.88,2.196 2.19,2.196 h 14.09 c 1.32,0 2.19,-0.879 2.19,-2.196 v -53.906 h 0.23 c 5.06,8.141 15.17,14.301 29.48,14.301 22.88,0 36.52,-15.625 36.52,-39.61 v -66.004 c 0,-1.324 -0.87,-2.203 -2.19,-2.203 h -14.08"
         style="fill:#231f20;fill-opacity:1;fill-rule:nonzero;stroke:none"
         id="path36" />
      <path
         d="m 3884.73,487.484 c 0.88,0 1.32,0.438 1.32,1.317 0,4.84 -0.44,8.578 -1.55,11.879 -3.51,10.562 -12.31,16.504 -24.19,16.504 -11.89,0 -20.69,-5.942 -24.2,-16.504 -1.11,-3.301 -1.55,-7.039 -1.55,-11.879 0,-0.879 0.44,-1.317 1.32,-1.317 z m -65.57,-35.652 c -2.2,6.82 -3.52,14.527 -3.52,26.629 0,12.098 1.1,20.242 3.3,26.625 5.94,18.262 21.35,28.383 41.37,28.383 20.24,0 35.42,-10.34 41.36,-28.383 2.2,-6.82 3.3,-14.082 3.3,-30.148 0,-1.317 -0.88,-2.204 -2.42,-2.204 h -66.67 c -0.88,0 -1.32,-0.437 -1.32,-1.316 0,-5.723 0.66,-9.242 1.76,-12.766 4.18,-12.097 13.64,-18.257 26.62,-18.257 12.55,0 21.35,5.062 27.07,11.664 1.1,1.097 2.2,1.316 3.3,0.437 l 9.02,-8.144 c 1.1,-0.879 1.1,-1.977 0.22,-3.079 -8.36,-10.562 -22.66,-18.043 -41.14,-18.043 -21.35,0 -36.53,10.34 -42.25,28.602"
         style="fill:#231f20;fill-opacity:1;fill-rule:nonzero;stroke:none"
         id="path38" />
      <path
         d="m 4002.28,425.652 c -1.55,0 -2.64,0.661 -3.52,2.203 l -29.93,49.067 -18.26,-21.348 v -27.719 c 0,-1.324 -0.88,-2.203 -2.2,-2.203 h -14.08 c -1.32,0 -2.2,0.879 -2.2,2.203 v 145.219 c 0,1.317 0.88,2.196 2.2,2.196 h 14.08 c 1.32,0 2.2,-0.879 2.2,-2.196 v -93.078 l 41.59,49.07 c 1.32,1.543 2.41,1.981 3.96,1.981 h 16.28 c 1.32,0 1.76,-1.098 0.88,-2.203 l -32.35,-37.621 38.96,-63.368 c 0.65,-0.886 0,-2.203 -1.33,-2.203 h -16.28"
         style="fill:#231f20;fill-opacity:1;fill-rule:nonzero;stroke:none"
         id="path40" />
      <path
         d="m 1363.52,501.227 c -10.12,-50.207 -48.91,-52.762 -56.59,-52.762 -21.9,0 -34.96,12.648 -34.96,33.805 0,4.828 0.7,11.398 1.93,17.988 l 23.99,119.515 0.11,0.457 h -28.34 l -24.45,-122.558 -0.32,-1.75 c -1.05,-5.535 -2.03,-10.789 -2.03,-17.602 0,-32.922 21.62,-55.015 53.86,-55.015 23.57,0 42.51,7.73 56.33,23.008 l -3.67,-20.188 -0.09,-0.477 h 27.93 l 38.61,194.125 0.08,0.457 h -28.74 l -23.65,-119.003"
         style="fill:#231f20;fill-opacity:1;fill-rule:nonzero;stroke:none"
         id="path42" />
      <path
         d="m 1556.71,622.59 c -21.9,0 -41.3,-8.953 -53.51,-24.668 l 4.38,21.851 0.09,0.457 h -27.95 l -38.6,-194.105 -0.1,-0.477 h 28.37 l 23.63,119.051 c 6.04,30.563 29.51,52.719 55.82,52.719 11.3,0 20.2,-4.453 27.2,-13.59 l 0.26,-0.355 23.01,20.613 -0.23,0.293 c -10.63,12.277 -24.51,18.211 -42.37,18.211"
         style="fill:#231f20;fill-opacity:1;fill-rule:nonzero;stroke:none"
         id="path44" />
      <path
         d="m 1088.15,595.551 -0.09,-0.485 h 96.7 l -128.74,-145.558 -0.07,-0.07 -4.85,-23.79 h 137.22 l 4.89,25.172 h -102.58 l 129.13,145.563 0.06,0.086 4.85,23.761 h -131.72 l -4.8,-24.679"
         style="fill:#231f20;fill-opacity:1;fill-rule:nonzero;stroke:none"
         id="path46" />
      <path
         d="m 1602.92,426.125 -0.1,-0.477 h 28.33 l 38.67,194.582 h -27.86 l -39.04,-194.105"
         style="fill:#231f20;fill-opacity:1;fill-rule:nonzero;stroke:none"
         id="path48" />
      <path
         d="m 1987.17,622.578 c -23.32,0 -41.52,-7.14 -55.51,-21.867 l 21.99,108.355 h -28.35 l -56.94,-283.445 h 28.34 l 23.63,119.07 c 10.14,50.184 49.27,52.723 57,52.723 21.67,0 34.61,-12.641 34.61,-33.801 0,-4.797 -0.74,-11.343 -1.98,-18 l -24.05,-119.992 h 28.32 l 24.85,122.609 c 1.2,6.516 1.99,12.02 1.99,19.333 0,32.91 -21.69,55.015 -53.9,55.015"
         style="fill:#231f20;fill-opacity:1;fill-rule:nonzero;stroke:none"
         id="path50" />
      <path
         d="m 1799.28,622.59 c -51.42,0 -87.5,-36.215 -99.03,-99.36 -2.08,-10.582 -2.8,-22.41 -2.8,-29.964 0,-43.153 26.2,-69.961 68.4,-69.961 24.53,0 46.93,9.402 64.75,27.215 l 0.26,0.269 -16.35,19.938 -0.29,0.355 -0.3,-0.34 c -15.04,-15.816 -28.52,-22.277 -46.51,-22.277 -20.12,0 -41.63,11.973 -41.63,45.594 0,10.523 1.25,19.218 3.12,29.023 3.04,16.496 9.87,39.551 25.06,55.582 12.07,12.445 26.39,18.754 42.58,18.754 16.89,0 27.46,-6.012 37.76,-21.434 l 0.25,-0.382 20.79,17.578 0.3,0.246 -0.22,0.316 c -14.21,19.961 -31.53,28.848 -56.14,28.848"
         style="fill:#231f20;fill-opacity:1;fill-rule:nonzero;stroke:none"
         id="path52" />
      <path
         d="m 1652.47,673.637 h 28.41 l 7.05,35.429 h -28.3 l -7.16,-35.429"
         style="fill:#231f20;fill-opacity:1;fill-rule:nonzero;stroke:none"
         id="path54" />
      <path
         d="m 1376.89,673.637 h 28.41 l 7.03,35.429 h -28.27 l -7.17,-35.429"
         style="fill:#231f20;fill-opacity:1;fill-rule:nonzero;stroke:none"
         id="path56" />
      <path
         d="m 1301.31,673.637 h 28.4 l 7.05,35.429 h -28.27 l -7.18,-35.429"
         style="fill:#231f20;fill-opacity:1;fill-rule:nonzero;stroke:none"
         id="path58" />
      <path
         d="m 922.664,599.234 h -63.769 l 22.39,109.832 H 339.242 L 282.313,425.621 h 216.121 l 14.152,70.852 H 384.984 l 7.739,38.972 h 127.562 l 12.844,63.789 H 405.535 l 7.723,38.981 H 615.512 L 572.809,425.621 h 88.586 l 42.695,212.594 h 74.371 L 735.766,425.621 h 88.597 l 21.86,109.824 h 63.754 l -21.86,-109.824 h 88.578 l 56.955,283.445 H 945.063 L 922.664,599.234"
         style="fill:#231f20;fill-opacity:1;fill-rule:nonzero;stroke:none"
         id="path60" />
      <path
         d="m 2341.51,283.82 h -17.01 v 566.93 h 17.01 V 283.82"
         style="fill:#231f20;fill-opacity:1;fill-rule:nonzero;stroke:none"
         id="path62" />
    </g>
  </g>
</svg>
